<mxfile host="Electron" modified="2025-05-10T16:33:18.796Z" agent="Mozilla/5.0 (Windows NT 10.0; Win64; x64) AppleWebKit/537.36 (KHTML, like Gecko) draw.io/24.6.4 Chrome/124.0.6367.207 Electron/30.0.6 Safari/537.36" etag="10QbK1PvSHmMoORbzaso" version="24.6.4" type="device">
  <diagram name="Страница — 1" id="vNCt1th2l9SOwqEeoIwB">
    <mxGraphModel dx="1345" dy="989" grid="1" gridSize="10" guides="1" tooltips="1" connect="1" arrows="1" fold="1" page="1" pageScale="1" pageWidth="1169" pageHeight="827" math="0" shadow="0">
      <root>
        <mxCell id="0" />
        <mxCell id="1" parent="0" />
        <mxCell id="ftbfaVGK64P-3ok9C7Bm-3" value="" style="shape=image;verticalLabelPosition=bottom;labelBackgroundColor=default;verticalAlign=top;aspect=fixed;imageAspect=0;image=https://pereborom.ru/wp-content/uploads/2018/07/Akkord-A-na-gitare-2-lad.png;" parent="1" vertex="1">
          <mxGeometry x="45.5" y="120" width="260" height="260" as="geometry" />
        </mxCell>
        <mxCell id="ftbfaVGK64P-3ok9C7Bm-4" value="" style="shape=image;verticalLabelPosition=bottom;labelBackgroundColor=default;verticalAlign=top;aspect=fixed;imageAspect=0;image=https://pereborom.ru/wp-content/uploads/2018/09/A-2.jpg;" parent="1" vertex="1">
          <mxGeometry x="305.5" y="120" width="240" height="240" as="geometry" />
        </mxCell>
        <mxCell id="ftbfaVGK64P-3ok9C7Bm-6" value="" style="shape=image;verticalLabelPosition=bottom;labelBackgroundColor=default;verticalAlign=top;aspect=fixed;imageAspect=0;image=https://pereborom.ru/wp-content/uploads/2018/06/Akkord-Am-1-lad.png;" parent="1" vertex="1">
          <mxGeometry x="600" y="120" width="260" height="260" as="geometry" />
        </mxCell>
        <mxCell id="ftbfaVGK64P-3ok9C7Bm-7" value="" style="shape=image;verticalLabelPosition=bottom;labelBackgroundColor=default;verticalAlign=top;aspect=fixed;imageAspect=0;image=https://pereborom.ru/wp-content/uploads/2018/06/am-na-gitare-1-lad.jpg;" parent="1" vertex="1">
          <mxGeometry x="850" y="105" width="250" height="250" as="geometry" />
        </mxCell>
        <mxCell id="vKcqVzi8BfFIcrtV4egV-1" value="" style="shape=image;verticalLabelPosition=bottom;labelBackgroundColor=default;verticalAlign=top;aspect=fixed;imageAspect=0;image=https://pereborom.ru/wp-content/uploads/2018/07/Akkord-A-na-gitare-5-lad.png;" parent="1" vertex="1">
          <mxGeometry x="20" y="480" width="265" height="265" as="geometry" />
        </mxCell>
        <mxCell id="vKcqVzi8BfFIcrtV4egV-2" value="" style="shape=image;verticalLabelPosition=bottom;labelBackgroundColor=default;verticalAlign=top;aspect=fixed;imageAspect=0;image=https://pereborom.ru/wp-content/uploads/2018/09/A-5.jpg;" parent="1" vertex="1">
          <mxGeometry x="300.5" y="450.5" width="259" height="259" as="geometry" />
        </mxCell>
        <mxCell id="vKcqVzi8BfFIcrtV4egV-3" value="" style="shape=image;verticalLabelPosition=bottom;labelBackgroundColor=default;verticalAlign=top;aspect=fixed;imageAspect=0;image=https://pereborom.ru/wp-content/uploads/2018/06/Akkord-Am-5-lad.png;" parent="1" vertex="1">
          <mxGeometry x="590" y="470" width="260" height="260" as="geometry" />
        </mxCell>
        <mxCell id="vKcqVzi8BfFIcrtV4egV-4" value="" style="shape=image;verticalLabelPosition=bottom;labelBackgroundColor=default;verticalAlign=top;aspect=fixed;imageAspect=0;image=https://pereborom.ru/wp-content/uploads/2018/06/am-na-gitare-5-lad.jpg;" parent="1" vertex="1">
          <mxGeometry x="850" y="440" width="280" height="280" as="geometry" />
        </mxCell>
        <mxCell id="UziPoMJGZDJ-EsxG6DR0-1" value="&lt;div style=&quot;text-align: start;&quot;&gt;&lt;span style=&quot;font-size: 30px;&quot;&gt;&lt;font color=&quot;#ff0000&quot;&gt;A&lt;/font&gt;-B-&lt;font color=&quot;#ff0000&quot;&gt;C#&lt;/font&gt;-D-&lt;font color=&quot;#ff0000&quot;&gt;E&lt;/font&gt;-F#-G#-A&lt;/span&gt;&lt;br&gt;&lt;/div&gt;" style="text;strokeColor=none;align=center;fillColor=none;html=1;verticalAlign=middle;whiteSpace=wrap;rounded=0;fontSize=16;fontStyle=1" vertex="1" parent="1">
          <mxGeometry x="40" y="30" width="510" height="30" as="geometry" />
        </mxCell>
        <mxCell id="UziPoMJGZDJ-EsxG6DR0-2" value="&lt;div style=&quot;text-align: start; font-size: 30px;&quot;&gt;&lt;span style=&quot;font-family: &amp;quot;Roboto Condensed&amp;quot;, sans-serif; font-size: 32px; text-align: center; background-color: rgb(255, 255, 255);&quot;&gt;&lt;font color=&quot;#ff0000&quot;&gt;A&lt;/font&gt;&lt;/span&gt;&lt;span style=&quot;color: rgb(45, 55, 72); font-family: &amp;quot;Roboto Condensed&amp;quot;, sans-serif; font-size: 32px; text-align: center; background-color: rgb(255, 255, 255);&quot;&gt;-B-&lt;/span&gt;&lt;span style=&quot;font-family: &amp;quot;Roboto Condensed&amp;quot;, sans-serif; font-size: 32px; text-align: center; background-color: rgb(255, 255, 255);&quot;&gt;&lt;font color=&quot;#ff0000&quot;&gt;C&lt;/font&gt;&lt;/span&gt;&lt;span style=&quot;color: rgb(45, 55, 72); font-family: &amp;quot;Roboto Condensed&amp;quot;, sans-serif; font-size: 32px; text-align: center; background-color: rgb(255, 255, 255);&quot;&gt;-D-&lt;/span&gt;&lt;span style=&quot;font-family: &amp;quot;Roboto Condensed&amp;quot;, sans-serif; font-size: 32px; text-align: center; background-color: rgb(255, 255, 255);&quot;&gt;&lt;font color=&quot;#ff0000&quot;&gt;E&lt;/font&gt;&lt;/span&gt;&lt;span style=&quot;color: rgb(45, 55, 72); font-family: &amp;quot;Roboto Condensed&amp;quot;, sans-serif; font-size: 32px; text-align: center; background-color: rgb(255, 255, 255);&quot;&gt;-F-G-A&lt;/span&gt;&lt;br&gt;&lt;/div&gt;" style="text;strokeColor=none;align=center;fillColor=none;html=1;verticalAlign=middle;whiteSpace=wrap;rounded=0;fontSize=16;fontStyle=1" vertex="1" parent="1">
          <mxGeometry x="650" y="30" width="510" height="30" as="geometry" />
        </mxCell>
        <mxCell id="UziPoMJGZDJ-EsxG6DR0-3" value="&lt;b&gt;&lt;font style=&quot;font-size: 25px;&quot;&gt;A0 - E1 - A1 - C2# - E2 - A2&lt;/font&gt;&lt;/b&gt;" style="text;strokeColor=none;align=center;fillColor=none;html=1;verticalAlign=middle;whiteSpace=wrap;rounded=0;fontSize=16;" vertex="1" parent="1">
          <mxGeometry x="50" y="760" width="415" height="30" as="geometry" />
        </mxCell>
        <mxCell id="UziPoMJGZDJ-EsxG6DR0-4" value="&lt;b&gt;&lt;font style=&quot;font-size: 25px;&quot;&gt;A0 – E1 – A1 - C2# - E2&lt;/font&gt;&lt;/b&gt;" style="text;strokeColor=none;align=center;fillColor=none;html=1;verticalAlign=middle;whiteSpace=wrap;rounded=0;fontSize=16;" vertex="1" parent="1">
          <mxGeometry x="40" y="390" width="415" height="30" as="geometry" />
        </mxCell>
        <mxCell id="UziPoMJGZDJ-EsxG6DR0-5" value="&lt;b&gt;&lt;font style=&quot;font-size: 25px;&quot;&gt;A0 – E1 - A1 - C2 - E2&lt;/font&gt;&lt;/b&gt;" style="text;strokeColor=none;align=center;fillColor=none;html=1;verticalAlign=middle;whiteSpace=wrap;rounded=0;fontSize=16;" vertex="1" parent="1">
          <mxGeometry x="680" y="390" width="415" height="30" as="geometry" />
        </mxCell>
        <mxCell id="UziPoMJGZDJ-EsxG6DR0-6" value="&lt;b&gt;&lt;font style=&quot;font-size: 25px;&quot;&gt;A0 – E1 – A1 – C2 - E2 - A2&lt;/font&gt;&lt;/b&gt;" style="text;strokeColor=none;align=center;fillColor=none;html=1;verticalAlign=middle;whiteSpace=wrap;rounded=0;fontSize=16;" vertex="1" parent="1">
          <mxGeometry x="670" y="760" width="415" height="30" as="geometry" />
        </mxCell>
      </root>
    </mxGraphModel>
  </diagram>
</mxfile>
